HIERARCHY
ROOT Hips
{
	OFFSET 0.000000 0.000000 0.000000
	CHANNELS 6 Xposition Yposition Zposition Zrotation Yrotation Xrotation 
	JOINT LHipJoint
	{
		OFFSET 0.000000 0.000000 0.000000
		CHANNELS 3 Zrotation Yrotation Xrotation
		JOINT LeftUpLeg
		{
			OFFSET 1.363060 -1.794630 0.839290
			CHANNELS 3 Zrotation Yrotation Xrotation
			JOINT LeftLeg
			{
				OFFSET 2.448110 -6.726130 0.000000
				CHANNELS 3 Zrotation Yrotation Xrotation
				JOINT LeftFoot
				{
					OFFSET 2.562200 -7.039590 0.000000
					CHANNELS 3 Zrotation Yrotation Xrotation
					JOINT LeftToeBase
					{
						OFFSET 0.157640 -0.433110 2.322550
						CHANNELS 3 Zrotation Yrotation Xrotation
						End Site
						{
							OFFSET 0.000000 0.000000 0.000000
						}
					}
				}
			}
		}
	}
	JOINT RHipJoint
	{
		OFFSET 0.000000 0.000000 0.000000
		CHANNELS 3 Zrotation Yrotation Xrotation
		JOINT RightUpLeg
		{
			OFFSET -1.305520 -1.794630 0.839290
			CHANNELS 3 Zrotation Yrotation Xrotation
			JOINT RightLeg
			{
				OFFSET -2.542530 -6.985550 0.000000
				CHANNELS 3 Zrotation Yrotation Xrotation
				JOINT RightFoot
				{
					OFFSET -2.568260 -7.056230 0.000000
					CHANNELS 3 Zrotation Yrotation Xrotation
					JOINT RightToeBase
					{
						OFFSET -0.164730 -0.452590 2.363150
						CHANNELS 3 Zrotation Yrotation Xrotation
						End Site
						{
							OFFSET 0.000000 0.000000 0.000000
						}
					}
				}
			}
		}
	}
	JOINT LowerBack
	{
		OFFSET 0.000000 0.000000 0.000000
		CHANNELS 3 Zrotation Yrotation Xrotation
		JOINT Spine
		{
			OFFSET 0.028270 2.035590 -0.193380
			CHANNELS 3 Zrotation Yrotation Xrotation
			JOINT Spine1
			{
				OFFSET 0.056720 2.048850 -0.042750
				CHANNELS 3 Zrotation Yrotation Xrotation
				JOINT Neck
				{
					OFFSET 0.000000 0.000000 0.000000
					CHANNELS 3 Zrotation Yrotation Xrotation
					JOINT Neck1
					{
						OFFSET -0.054170 1.746240 0.172020
						CHANNELS 3 Zrotation Yrotation Xrotation
						JOINT Head
						{
							OFFSET 0.104070 1.761360 -0.123970
							CHANNELS 3 Zrotation Yrotation Xrotation
							End Site
							{
								OFFSET 0.000000 0.000000 0.000000
							}
						}
					}
				}
				JOINT LeftShoulder
				{
					OFFSET 0.000000 0.000000 0.000000
					CHANNELS 3 Zrotation Yrotation Xrotation
					JOINT LeftArm
					{
						OFFSET 3.362410 1.200890 -0.311210
						CHANNELS 3 Zrotation Yrotation Xrotation
						JOINT LeftForeArm
						{
							OFFSET 4.983000 -0.000000 -0.000000
							CHANNELS 3 Zrotation Yrotation Xrotation
							JOINT LeftHand
							{
								OFFSET 3.483560 -0.000000 -0.000000
								CHANNELS 3 Zrotation Yrotation Xrotation
								JOINT LeftFingerBase
								{
									OFFSET 0.000000 0.000000 0.000000
									CHANNELS 3 Zrotation Yrotation Xrotation
									JOINT LeftHandIndex1
									{
										OFFSET 0.715260 -0.000000 -0.000000
										CHANNELS 3 Zrotation Yrotation Xrotation
										End Site
										{
											OFFSET 0.000000 0.000000 0.000000
										}
									}
								}
								JOINT LThumb
								{
									OFFSET 0.000000 0.000000 0.000000
									CHANNELS 3 Zrotation Yrotation Xrotation
									End Site
									{
										OFFSET 0.000000 0.000000 0.000000
									}
								}
							}
						}
					}
				}
				JOINT RightShoulder
				{
					OFFSET 0.000000 0.000000 0.000000
					CHANNELS 3 Zrotation Yrotation Xrotation
					JOINT RightArm
					{
						OFFSET -3.136600 1.374050 -0.404650
						CHANNELS 3 Zrotation Yrotation Xrotation
						JOINT RightForeArm
						{
							OFFSET -5.241900 -0.000000 -0.000000
							CHANNELS 3 Zrotation Yrotation Xrotation
							JOINT RightHand
							{
								OFFSET -3.444170 -0.000000 -0.000000
								CHANNELS 3 Zrotation Yrotation Xrotation
								JOINT RightFingerBase
								{
									OFFSET 0.000000 0.000000 0.000000
									CHANNELS 3 Zrotation Yrotation Xrotation
									JOINT RightHandIndex1
									{
										OFFSET -0.622530 -0.000000 -0.000000
										CHANNELS 3 Zrotation Yrotation Xrotation
										End Site
										{
											OFFSET 0.000000 0.000000 0.000000
										}
									}
								}
								JOINT RThumb
								{
									OFFSET 0.000000 0.000000 0.000000
									CHANNELS 3 Zrotation Yrotation Xrotation
									End Site
									{
										OFFSET 0.000000 0.000000 0.000000
									}
								}
							}
						}
					}
				}
			}
		}
	}
}
MOTION
Frames: 5
Frame Time: 0.008333
0.862631 17.772908 -33.236049 -2.240972 2.975132 2.790572 1.158681 0.777257 0.525136 -17.732643 -6.678537 -6.656079 1.288876 8.957839 25.668926 0.622394 0.105861 -12.189520 0.034100 -1.192000 -3.277300 -3.435341 -0.856214 -1.146380 25.154337 2.683699 -7.061792 -2.452349 -9.536620 28.182205 -0.346578 -5.209544 -18.671126 -0.365000 -3.880700 10.741200 1.617811 -1.655364 3.634903 0.829091 -2.113952 -2.706010 1.969757 -1.285293 -3.025112 -3.775378 -2.199961 -10.813428 6.874591 -2.932935 2.634740 1.347400 -1.406400 4.265500 1.064425 4.232520 -0.686734 -94.360546 3.705388 23.272163 16.274087 -26.271993 -3.462610 0.446089 -0.100171 5.366116 5.811584 42.666220 3.644200 -7.125000 0.000000 0.000000 -44.332700 67.907600 -26.345300 -0.444589 -4.882621 -1.704723 87.545055 -3.968543 13.026823 -11.254440 20.337046 -1.853446 0.988679 0.488180 -10.850534 -16.391759 18.324626 -5.526000 7.125000 0.000000 0.000000 6.933500 -11.362000 5.472900 
0.867306 17.779309 -33.235236 -2.306427 3.170212 2.826495 1.120319 0.756738 0.502282 -17.604280 -6.883782 -6.660606 1.297755 8.972165 25.698133 0.647625 -0.091097 -12.061270 0.013600 -0.752700 -2.068600 -3.486975 -0.867574 -1.193567 25.268096 2.292574 -7.002630 -2.409018 -9.454644 27.922602 -0.312035 -5.302310 -18.448279 -0.288000 -3.451000 9.537100 0.952108 -1.361506 2.853271 1.082129 -1.809801 -2.461668 3.113685 -1.130460 -1.937582 -3.928846 -2.369944 -10.761855 6.272132 -3.148621 2.220265 1.107100 -1.573500 4.045800 1.151939 4.250201 -0.603302 -95.255374 2.769177 23.469999 15.823361 -25.769843 -3.299625 0.450652 -0.102997 5.834813 5.830863 41.416806 3.566800 -7.125000 0.000000 0.000000 -42.139000 67.028400 -24.053700 -0.393474 -4.994939 -1.697211 86.776411 -3.439544 13.093443 -11.417338 20.641255 -1.928444 0.963972 0.542844 -11.066901 -16.765713 17.435404 -5.361100 7.125000 0.000000 0.000000 6.656900 -12.292300 5.122600 
0.871574 17.777582 -33.238589 -2.226590 3.342581 2.872843 1.136210 0.760934 0.513251 -17.711390 -6.831914 -6.834537 1.315872 9.007315 25.806235 0.652741 -0.120054 -12.067631 0.046700 -1.395300 -3.837200 -3.465227 -0.864860 -1.180635 25.140827 2.218578 -6.986712 -2.378845 -9.393056 27.735364 -0.306183 -5.387939 -18.517810 -0.316500 -3.616200 9.999400 1.028639 -1.277909 2.923498 0.952176 -1.681954 -2.594741 2.693435 -1.059611 -2.385972 -3.777717 -2.373993 -10.414621 6.473092 -3.191085 2.630572 1.162700 -1.566400 4.138300 1.130127 4.255180 -0.633591 -94.763573 3.318899 23.991173 15.919230 -25.857215 -3.331935 0.449950 -0.097439 5.633196 5.372455 41.758158 3.283900 -7.125000 0.000000 0.000000 -43.149900 67.128400 -24.812000 -0.412525 -4.958660 -1.696218 87.278586 -3.983594 12.627234 -11.506641 20.806156 -1.976886 0.958280 0.530194 -11.211224 -16.369354 17.513434 -5.261000 7.125000 0.000000 0.000000 6.928200 -12.237900 5.342400 
0.875537 17.780326 -33.239300 -2.621950 3.525120 2.802400 1.143480 0.764278 0.516866 -17.287297 -7.024321 -6.810876 1.333283 9.031544 25.893991 0.663503 -0.171948 -12.077602 0.027600 -1.073100 -2.950100 -3.473250 -0.874323 -1.179507 25.595288 2.138923 -6.824453 -2.340515 -9.326182 27.518049 -0.287464 -5.409114 -18.354367 -0.354500 -3.825200 10.585500 1.414991 -0.931771 2.801287 0.891420 -1.212357 -2.646068 2.294602 -0.817090 -2.590654 -3.016179 -2.624146 -9.478663 6.114548 -3.710390 2.103181 0.949300 -1.860300 4.175200 1.165146 4.211572 -0.622121 -94.305318 3.679027 25.041014 15.882912 -25.795119 -3.315244 0.450976 -0.098854 5.656178 6.061632 41.765861 3.746100 -7.125000 0.000000 0.000000 -42.502000 67.348600 -24.588400 -0.383355 -5.012616 -1.684257 87.768809 -4.441769 11.405599 -11.516970 20.842050 -1.976234 0.974835 0.498143 -10.659423 -16.131354 18.005652 -5.338200 7.125000 0.000000 0.000000 7.100300 -11.732400 5.552000 
0.886816 17.780427 -33.239605 -2.489213 3.581267 2.920184 1.134926 0.752809 0.500871 -17.484279 -7.184909 -6.897246 1.336061 9.059022 25.956179 0.636298 -0.007303 -12.101504 0.043900 -1.352000 -3.718000 -3.484594 -0.868776 -1.192949 25.428397 2.232857 -6.824380 -2.315748 -9.284241 27.383209 -0.257637 -5.675889 -18.460735 -0.314600 -3.605500 9.969400 1.256724 -1.022429 2.585271 0.965555 -1.351330 -2.540472 2.609777 -0.900200 -2.066028 -3.249637 -2.452653 -10.623572 5.970092 -3.382611 2.962286 0.857000 -1.668700 4.270900 1.155327 4.258443 -0.626847 -94.677891 3.169795 24.300222 15.714679 -25.598180 -3.260671 0.454080 -0.102382 5.924160 5.713318 40.508233 3.423200 -7.125000 0.000000 0.000000 -40.778800 66.327800 -22.538800 -0.376081 -5.001395 -1.693581 87.460352 -3.675236 11.947297 -11.438068 20.718533 -1.952897 0.970434 0.497075 -10.857399 -15.849173 17.914088 -5.220400 7.125000 0.000000 0.000000 7.285600 -11.850800 5.681400 
